<svg width="20" height="20" viewBox="0 0 20 20" fill="none" xmlns="http://www.w3.org/2000/svg">
<g clip-path="url(#clip0)">
<path d="M11.2502 3.48333C11.0202 3.48333 10.8335 3.29667 10.8335 3.06667V1.66667C10.8335 1.2075 10.4593 0.833333 10.0002 0.833333C9.541 0.833333 9.16683 1.2075 9.16683 1.66667V3.06667C9.16683 3.29667 8.98016 3.48333 8.75016 3.48333C8.52016 3.48333 8.3335 3.2975 8.3335 3.06667V1.66667C8.3335 0.7475 9.081 0 10.0002 0C10.9193 0 11.6668 0.7475 11.6668 1.66667V3.06667C11.6668 3.2975 11.4802 3.48333 11.2502 3.48333Z" fill="black"/>
<path d="M10.0002 20C8.39183 20 7.0835 18.6917 7.0835 17.0833C7.0835 16.8533 7.27016 16.6667 7.50016 16.6667C7.73016 16.6667 7.91683 16.8533 7.91683 17.0833C7.91683 18.2317 8.85183 19.1667 10.0002 19.1667C11.1485 19.1667 12.0835 18.2317 12.0835 17.0833C12.0835 16.8533 12.2702 16.6667 12.5002 16.6667C12.7302 16.6667 12.9168 16.8533 12.9168 17.0833C12.9168 18.6917 11.6085 20 10.0002 20Z" fill="black"/>
<path d="M17.0832 17.5H2.9165C2.22734 17.5 1.6665 16.9392 1.6665 16.25C1.6665 15.8842 1.82567 15.5383 2.104 15.3C3.41734 14.19 4.1665 12.575 4.1665 10.865V8.33333C4.1665 5.11667 6.78317 2.5 9.99984 2.5C13.2165 2.5 15.8332 5.11667 15.8332 8.33333V10.865C15.8332 12.5758 16.5823 14.19 17.889 15.2942C18.174 15.5383 18.3332 15.8842 18.3332 16.25C18.3332 16.9392 17.7732 17.5 17.0832 17.5ZM9.99984 3.33333C7.24234 3.33333 4.99984 5.57583 4.99984 8.33333V10.865C4.99984 12.8217 4.14317 14.6675 2.649 15.9308C2.55317 16.0125 2.49984 16.1283 2.49984 16.25C2.49984 16.48 2.6865 16.6667 2.9165 16.6667H17.0832C17.3132 16.6667 17.4998 16.48 17.4998 16.25C17.4998 16.1283 17.4465 16.0125 17.354 15.9333C15.8573 14.6675 14.9998 12.8208 14.9998 10.865V8.33333C14.9998 5.57583 12.7573 3.33333 9.99984 3.33333Z" fill="black"/>
</g>
<defs>
<clipPath id="clip0">
<rect width="20" height="20" fill="white"/>
</clipPath>
</defs>
</svg>
