<svg width="20" height="20" viewBox="0 0 20 20" fill="none" xmlns="http://www.w3.org/2000/svg">
<g clip-path="url(#clip0)">
<path d="M6.37996 15.5563C5.22678 15.5563 4.29199 16.4912 4.29199 17.6443C4.29199 18.7975 5.22682 19.7323 6.37996 19.7323C7.53313 19.7323 8.46792 18.7974 8.46792 17.6443C8.46796 16.4912 7.53313 15.5563 6.37996 15.5563ZM6.37996 18.8043C5.73931 18.8043 5.21999 18.285 5.21999 17.6443C5.21999 17.0037 5.73931 16.4844 6.37996 16.4844C7.0206 16.4844 7.53993 17.0037 7.53993 17.6443C7.53997 18.285 7.0206 18.8043 6.37996 18.8043Z" fill="black"/>
<path d="M15.1959 15.5563C14.0427 15.5563 13.1079 16.4912 13.1079 17.6443C13.1079 18.7975 14.0427 19.7323 15.1959 19.7323C16.349 19.7323 17.2838 18.7974 17.2838 17.6443C17.2838 16.4912 16.349 15.5563 15.1959 15.5563ZM15.1959 18.8043C14.5552 18.8043 14.0359 18.285 14.0359 17.6443C14.0359 17.0037 14.5552 16.4844 15.1959 16.4844C15.8365 16.4844 16.3558 17.0037 16.3558 17.6443C16.3559 18.285 15.8365 18.8043 15.1959 18.8043Z" fill="black"/>
<path d="M19.9054 3.37648C19.8088 3.27093 19.6766 3.20485 19.5343 3.19086L4.43118 2.98207L4.01359 1.70606C3.7194 0.853072 2.92062 0.277217 2.01838 0.26767H0.463998C0.207731 0.26767 0 0.4754 0 0.731667C0 0.987933 0.207731 1.19566 0.463998 1.19566H2.01838C2.52288 1.20681 2.96712 1.53075 3.13199 2.00767L6.07837 10.8932L5.8464 11.4268C5.58764 12.094 5.66535 12.845 6.05519 13.4452C6.4413 14.0346 7.09087 14.3984 7.79519 14.4195H16.8199C17.0762 14.4195 17.2839 14.2118 17.2839 13.9556C17.2839 13.6993 17.0762 13.4916 16.8199 13.4916H7.79515C7.39741 13.4816 7.03128 13.2724 6.82075 12.9348C6.61258 12.6013 6.56981 12.1904 6.70476 11.8211L6.89038 11.4036L16.6575 10.3827C17.7304 10.2646 18.6129 9.48428 18.8615 8.43395L19.9751 3.7708C20.0253 3.63652 19.9987 3.4855 19.9054 3.37648ZM17.9567 8.2252C17.8061 8.90132 17.232 9.40005 16.5415 9.4548L6.89038 10.4524L4.73278 3.91006L18.9543 4.11886L17.9567 8.2252Z" fill="black"/>
</g>
<defs>
<clipPath id="clip0">
<rect width="20" height="20" fill="white"/>
</clipPath>
</defs>
</svg>
