<svg width="67" height="63" viewBox="0 0 67 63" fill="none" xmlns="http://www.w3.org/2000/svg">
<path fill-rule="evenodd" clip-rule="evenodd" d="M12.1865 0C17.2925 0 21.4315 4.09264 21.4315 9.14073C21.4315 14.1895 17.2925 18.2815 12.1865 18.2815C7.08051 18.2815 2.94153 14.1895 2.94153 9.14073C2.94153 4.09264 7.08051 0 12.1865 0ZM14.4099 27.6307C16.5005 26.285 19.8734 25.6505 22.3284 24.6344C28.7424 21.981 31.0243 20.8314 36.9161 17.3733C37.5059 17.0281 40.0106 15.4074 40.4175 15.2944C42.4765 14.7234 43.5039 16.4245 42.2013 17.8995C42.0034 18.1237 39.2674 19.6687 38.78 19.9855C30.8179 25.1632 25.8143 33.6266 24.6012 43.4319C13.3176 43.4811 14.2323 42.3985 14.4099 27.6307ZM32.322 62.3504C33.227 59.5058 30.8134 58.2016 29.5851 52.5385C28.7412 48.6486 28.6856 44.731 29.4753 40.9998C30.2181 37.4893 31.6389 34.3857 33.1883 31.8495C38.0233 23.9373 44.9557 22.6318 46.5015 19.4943C47.9869 16.4775 45.9424 16.5733 48.6044 15.0245L60.7736 8.09299C62.1512 7.31891 63.4344 6.63042 65.0325 5.74138C66.9758 4.66074 67.4852 4.09455 66.5356 1.63086C64.1756 0.648256 63.1308 1.64938 61.2565 2.7594L45.8507 11.5674C43.2287 12.4513 42.5133 9.02705 38.0301 11.5118C26.6673 17.8085 24.9726 19.9139 9.76254 24.1298C7.35763 24.7963 0.0466629 25.32 0.000476799 28.0302C-0.0683179 32.0453 7.32631 29.0949 9.90918 28.7245C9.95149 32.765 9.32878 39.5481 10.9385 42.6767C13.7375 48.1166 18.8318 47.7787 24.471 47.9125C24.9255 52.2252 26.998 66.1499 32.322 62.3504ZM12.1865 4.5924C14.7267 4.5924 16.7867 6.62882 16.7867 9.14073C16.7867 11.6523 14.7267 13.6891 12.1865 13.6891C9.64562 13.6891 7.5863 11.6523 7.5863 9.14073C7.5863 6.62882 9.64562 4.5924 12.1865 4.5924Z" fill="white"/>
</svg>
