<svg width="20" height="20" viewBox="0 0 20 20" fill="none" xmlns="http://www.w3.org/2000/svg">
<g clip-path="url(#clip0)">
<path d="M14.5832 10C14.4957 10 14.4082 9.9725 14.334 9.9175C14.1223 9.76 9.1665 6.02583 9.1665 3.025C9.1665 1.35667 10.524 0 12.1923 0C13.1432 0 14.0198 0.4425 14.5832 1.17C15.1474 0.4425 16.024 0 16.974 0C18.6424 0 19.9999 1.35667 19.9999 3.025C19.9999 6.02583 15.044 9.76 14.8323 9.9175C14.7582 9.9725 14.6707 10 14.5832 10ZM12.1923 0.833333C10.984 0.833333 9.99984 1.81667 9.99984 3.025C9.99984 5.0475 13.1032 7.89833 14.5832 9.05833C16.0632 7.89833 19.1665 5.04833 19.1665 3.025C19.1665 1.81667 18.1824 0.833333 16.974 0.833333C16.1007 0.833333 15.3124 1.34917 14.9657 2.14833C14.899 2.30083 14.749 2.39917 14.5832 2.39917C14.4173 2.39917 14.2665 2.30083 14.2007 2.14833C13.8548 1.34917 13.0665 0.833333 12.1923 0.833333Z" fill="white"/>
<path d="M16.2501 14.1667H5.41677C5.21844 14.1667 5.04761 14.0267 5.00844 13.8317L3.34177 5.49833C3.31677 5.37583 3.34927 5.24917 3.42761 5.1525C3.50594 5.05583 3.62594 5 3.75011 5H7.91677C8.14677 5 8.33344 5.18667 8.33344 5.41667C8.33344 5.64667 8.14677 5.83333 7.91677 5.83333H4.25844L5.75844 13.3333H15.9084L16.5918 9.91833C16.6376 9.69166 16.8659 9.54416 17.0818 9.59166C17.3076 9.63666 17.4543 9.85583 17.4093 10.0817L16.6593 13.8317C16.6193 14.0267 16.4484 14.1667 16.2501 14.1667Z" fill="white"/>
<path d="M5.41583 14.1667C5.22167 14.1667 5.04833 14.03 5.00833 13.8317L2.9425 3.50337C2.82667 2.92087 2.31 2.49837 1.71667 2.49837H1.71583L0.4175 2.50004C0.416667 2.50004 0.416667 2.50004 0.416667 2.50004C0.186667 2.50004 0 2.31337 0 2.08337C0 1.85337 0.186667 1.66671 0.415833 1.66671L1.71417 1.66504H1.71667C2.70667 1.66504 3.56583 2.36921 3.76 3.34004L5.825 13.6684C5.87083 13.8942 5.72417 14.1134 5.4975 14.1584C5.47083 14.1642 5.44333 14.1667 5.41583 14.1667Z" fill="white"/>
<path d="M17.9167 15.8333H3.75C3.06083 15.8333 2.5 15.2724 2.5 14.5833C2.5 13.8941 3.06083 13.3333 3.75 13.3333H5.41667C5.64667 13.3333 5.83333 13.5199 5.83333 13.7499C5.83333 13.9799 5.64667 14.1666 5.41667 14.1666H3.75C3.52083 14.1666 3.33333 14.3533 3.33333 14.5833C3.33333 14.8133 3.52083 14.9999 3.75 14.9999H17.9167C18.1467 14.9999 18.3333 15.1866 18.3333 15.4166C18.3333 15.6466 18.1467 15.8333 17.9167 15.8333Z" fill="white"/>
<path d="M6.66666 20.0001C5.7475 20.0001 5 19.2526 5 18.3334C5 17.4143 5.7475 16.6667 6.66666 16.6667C7.58583 16.6667 8.33333 17.4143 8.33333 18.3334C8.33333 19.2526 7.58583 20.0001 6.66666 20.0001ZM6.66666 17.5001C6.20666 17.5001 5.83333 17.8743 5.83333 18.3334C5.83333 18.7926 6.20666 19.1668 6.66666 19.1668C7.12666 19.1668 7.5 18.7926 7.5 18.3334C7.5 17.8743 7.12666 17.5001 6.66666 17.5001Z" fill="white"/>
<path d="M14.1667 20.0001C13.2475 20.0001 12.5 19.2526 12.5 18.3334C12.5 17.4143 13.2475 16.6667 14.1667 16.6667C15.0858 16.6667 15.8333 17.4143 15.8333 18.3334C15.8333 19.2526 15.0858 20.0001 14.1667 20.0001ZM14.1667 17.5001C13.7067 17.5001 13.3333 17.8743 13.3333 18.3334C13.3333 18.7926 13.7067 19.1668 14.1667 19.1668C14.6267 19.1668 15 18.7926 15 18.3334C15 17.8743 14.6267 17.5001 14.1667 17.5001Z" fill="white"/>
</g>
<defs>
<clipPath id="clip0">
<rect width="20" height="20" fill="white"/>
</clipPath>
</defs>
</svg>
